# This file uses centimeters as units for non-parametric coordinates.

mtllib CasaTecho.mtl
g default
v -9.592889 7.471769 32.540890
v -9.592889 5.476309 32.323685
v -9.592889 5.476309 34.240662
v -9.592889 7.471769 34.023460
v -9.592889 8.899471 34.023460
v -9.592889 9.116673 34.240662
v -9.592889 9.116673 32.323685
v -9.592889 8.899471 32.540890
v -4.094572 5.476309 34.240662
v -4.094572 5.476309 35.199150
v -9.592889 5.476309 35.199150
v -9.592889 5.476309 34.240662
v -4.094572 10.069828 35.199150
v -9.592889 10.069828 35.199150
v -9.592889 9.116673 35.199150
v -4.094572 9.116673 35.199150
v -9.592889 11.902708 31.365198
v -4.094572 11.902708 31.365198
v -4.094572 9.116673 31.365198
v -9.592889 9.116673 31.365198
v -4.094572 11.706412 32.323685
v -4.094572 12.184741 31.365198
v -9.592889 12.184741 31.365198
v -9.592889 11.706412 32.323685
v -3.907400 9.999201 35.329662
v -9.780061 9.999201 35.329662
v -9.780061 11.956871 31.234684
v -3.907400 11.956871 31.234684
v -3.907400 10.214521 35.329662
v -3.907400 10.725416 34.305920
v -4.094572 10.749751 34.240662
v -4.094572 10.271422 35.199150
v -9.780061 10.214521 35.329662
v -9.592889 10.271422 35.199150
v -9.780061 11.747210 32.258430
v -9.780061 12.258105 31.234684
v -9.780061 11.467453 32.258430
v -3.907400 12.258105 31.234684
v -3.907400 10.488619 34.305920
v -9.780061 10.488619 34.305920
v -9.592889 10.528048 34.240662
v -3.907400 11.467453 32.258430
v -4.094572 11.444489 32.323685
v -4.094572 5.476309 31.365198
v -9.592889 5.476309 31.365198
v -9.780061 10.725416 34.305920
v -9.592889 10.749751 34.240662
v -3.907400 11.747210 32.258430
v -4.094572 10.528048 34.240662
v -9.592889 11.444488 32.323685
v -9.592889 5.476309 32.323685
v -4.094572 5.476309 32.323685
v -4.094572 10.528048 34.240662
v -4.094572 10.069828 35.199150
v -4.094572 9.116673 35.199150
v -4.094572 9.116673 34.240662
v -4.094572 5.476309 35.199150
v -4.094572 5.476309 34.240662
v -4.094572 9.116673 31.365198
v -4.094572 9.116673 32.323685
v -4.094572 5.476309 32.323685
v -4.094572 5.476309 31.365198
v -4.094572 11.444489 32.323685
v -4.094572 11.902708 31.365198
v -9.592889 7.471769 32.540890
v -9.592889 7.471769 34.023460
v -9.592889 8.899471 34.023460
v -9.592889 8.899471 32.540890
v -4.094572 11.706412 32.323685
v -4.094572 12.184741 31.365198
v -9.592889 12.184741 31.365198
v -9.592889 11.706412 32.323685
v -3.907400 10.214521 35.329662
v -3.907400 10.725416 34.305920
v -4.094572 10.749751 34.240662
v -4.094572 10.271422 35.199150
v -9.592889 10.271422 35.199150
v -9.780061 11.747210 32.258430
v -3.907400 12.258105 31.234684
v -3.907400 10.488619 34.305920
v -9.780061 10.488619 34.305920
v -9.592889 11.444488 32.323685
v -9.592889 11.902708 31.365198
v -9.592889 9.116673 31.365198
v -9.592889 9.116673 32.323685
v -9.592889 5.476309 31.365198
v -9.592889 5.476309 32.323685
v -9.592889 9.116673 35.199150
v -9.592889 9.116673 34.240662
v -9.592889 5.476309 34.240662
v -9.592889 5.476309 35.199150
v -9.592889 10.528048 34.240662
v -9.592889 10.069828 35.199150
v -3.907400 9.999201 35.329662
v -9.780061 9.999201 35.329662
v -9.780061 11.956871 31.234684
v -3.907400 11.956871 31.234684
v -9.780061 10.214521 35.329662
v -9.780061 12.258105 31.234684
v -9.780061 11.467453 32.258430
v -3.907400 11.467453 32.258430
v -9.780061 10.725416 34.305920
v -9.592889 10.749751 34.240662
v -3.907400 11.747210 32.258430
vt 0.182151 0.601602
vt 0.196289 0.471710
vt 0.071506 0.471710
vt 0.085644 0.601602
vt 0.085644 0.694537
vt 0.071506 0.708676
vt 0.196290 0.708676
vt 0.182151 0.694537
vt 0.928494 0.367022
vt 0.990886 0.367022
vt 0.990886 0.009114
vt 0.928494 0.009114
vt 0.713596 0.021397
vt 0.713596 0.382232
vt 0.651044 0.382232
vt 0.651044 0.021397
vt 0.381648 0.032401
vt 0.021378 0.032401
vt 0.021378 0.214952
vt 0.381648 0.214952
vt 0.487084 0.804017
vt 0.421122 0.804017
vt 0.421122 0.425624
vt 0.487084 0.425624
vt 0.708961 0.009114
vt 0.708961 0.394515
vt 0.393912 0.028852
vt 0.009114 0.028852
vt 0.693955 0.816898
vt 0.623502 0.816898
vt 0.619010 0.804017
vt 0.684973 0.804017
vt 0.693955 0.412743
vt 0.684973 0.425624
vt 0.330226 0.546187
vt 0.330226 0.471710
vt 0.312681 0.480465
vt 0.313932 0.554318
vt 0.393912 0.009114
vt 0.009114 0.009114
vt 0.294453 0.695141
vt 0.294453 0.769618
vt 0.281912 0.775876
vt 0.280661 0.702024
vt 0.723091 0.009114
vt 0.723091 0.394515
vt 0.381080 0.743506
vt 0.393912 0.752454
vt 0.393912 0.682268
vt 0.381080 0.677794
vt 0.348454 0.743507
vt 0.361286 0.752455
vt 0.361286 0.682269
vt 0.348454 0.677795
vt 0.021378 0.453482
vt 0.381648 0.453482
vt 0.412140 0.382232
vt 0.412140 0.021397
vt 0.482594 0.412743
vt 0.623502 0.412743
vt 0.619010 0.425624
vt 0.482594 0.816898
vt 0.412140 0.816898
vt 0.412140 0.412743
vt 0.361286 0.541896
vt 0.348454 0.546370
vt 0.361286 0.471710
vt 0.348454 0.480657
vt 0.393912 0.541896
vt 0.381080 0.546370
vt 0.393912 0.471710
vt 0.381080 0.480658
vt 0.278160 0.554318
vt 0.294454 0.546187
vt 0.294454 0.471710
vt 0.276909 0.480465
vt 0.316434 0.702024
vt 0.330226 0.695141
vt 0.330226 0.769617
vt 0.317684 0.775876
vt 0.803710 0.009114
vt 0.803711 0.367022
vt 0.741319 0.367022
vt 0.741319 0.009114
vt 0.774575 0.741581
vt 0.712183 0.711754
vt 0.712183 0.649709
vt 0.774575 0.649709
vt 0.712183 0.412743
vt 0.774575 0.412743
vt 0.961750 0.649709
vt 0.899359 0.649709
vt 0.899359 0.412743
vt 0.961750 0.412743
vt 0.899359 0.801236
vt 0.961750 0.831063
vt 0.196289 0.860203
vt 0.258681 0.890030
vt 0.258681 0.708676
vt 0.196290 0.708676
vt 0.258681 0.471710
vt 0.196289 0.471710
vt 0.009114 0.708676
vt 0.071506 0.708676
vt 0.071506 0.471710
vt 0.009114 0.471710
vt 0.071506 0.800548
vt 0.009114 0.770721
vn -1.000000 0.000000 0.000000
vn -1.000000 0.000000 0.000000
vn -1.000000 0.000000 0.000000
vn -1.000000 0.000000 0.000000
vn -1.000000 0.000000 0.000000
vn -1.000000 0.000000 0.000000
vn -1.000000 0.000000 0.000000
vn -1.000000 0.000000 0.000000
vn -1.000000 0.000000 0.000000
vn -1.000000 0.000000 0.000000
vn -1.000000 0.000000 0.000000
vn -1.000000 0.000000 0.000000
vn -1.000000 0.000000 0.000000
vn -1.000000 0.000000 0.000000
vn -1.000000 0.000000 0.000000
vn -1.000000 0.000000 0.000000
vn -1.000000 0.000000 0.000000
vn -1.000000 0.000000 0.000000
vn -1.000000 0.000000 0.000000
vn -1.000000 0.000000 0.000000
vn -1.000000 0.000000 0.000000
vn -1.000000 0.000000 0.000000
vn -1.000000 0.000000 0.000000
vn -1.000000 0.000000 0.000000
vn 0.000000 -1.000000 0.000000
vn 0.000000 -1.000000 0.000000
vn 0.000000 -1.000000 0.000000
vn 0.000000 -1.000000 0.000000
vn 0.000000 -1.000000 0.000000
vn 0.000000 -1.000000 0.000000
vn 0.000000 0.000000 1.000000
vn 0.000000 0.000000 1.000000
vn 0.000000 0.000000 1.000000
vn 0.000000 0.000000 1.000000
vn 0.000000 0.000000 1.000000
vn 0.000000 0.000000 1.000000
vn 0.000000 0.000000 -1.000000
vn 0.000000 0.000000 -1.000000
vn 0.000000 0.000000 -1.000000
vn 0.000000 0.000000 -1.000000
vn 0.000000 0.000000 -1.000000
vn 0.000000 0.000000 -1.000000
vn 0.000000 0.894787 0.446494
vn 0.000000 0.894787 0.446494
vn 0.000000 0.894787 0.446494
vn 0.000000 0.894787 0.446494
vn 0.000000 0.894787 0.446494
vn 0.000000 0.894787 0.446494
vn 0.000000 -0.879500 -0.475900
vn 0.000000 -0.879500 -0.475900
vn 0.000000 -0.879500 -0.475900
vn 0.000000 -0.879500 -0.475900
vn 0.000000 -0.879500 -0.475900
vn 0.000000 -0.879500 -0.475900
vn 0.000000 -0.923621 -0.383308
vn 0.000000 -0.923621 -0.383308
vn 0.000000 -0.923621 -0.383308
vn 0.000000 -0.923621 -0.383308
vn 0.000000 -0.923621 -0.383308
vn 0.000000 -0.923621 -0.383308
vn -0.039299 0.894076 0.446188
vn -0.039299 0.894076 0.446188
vn -0.039299 0.894076 0.446188
vn -0.039299 0.894076 0.446188
vn -0.039299 0.894076 0.446188
vn -0.039299 0.894076 0.446188
vn 0.000000 0.916691 0.399596
vn 0.000000 0.916691 0.399596
vn 0.000000 0.916691 0.399596
vn 0.000000 0.916691 0.399596
vn 0.000000 0.916691 0.399596
vn 0.000000 0.916691 0.399596
vn -1.000000 0.000000 0.000000
vn -1.000000 0.000000 0.000000
vn -1.000000 0.000000 0.000000
vn -1.000000 0.000000 0.000000
vn -1.000000 0.000000 0.000000
vn -1.000000 0.000000 0.000000
vn 0.000000 0.000000 -1.000000
vn 0.000000 0.000000 -1.000000
vn 0.000000 0.000000 -1.000000
vn 0.000000 0.000000 -1.000000
vn 0.000000 0.000000 -1.000000
vn 0.000000 0.000000 -1.000000
vn 1.000000 0.000000 0.000000
vn 1.000000 0.000000 0.000000
vn 1.000000 0.000000 0.000000
vn 1.000000 0.000000 0.000000
vn 1.000000 0.000000 0.000000
vn 1.000000 0.000000 0.000000
vn 0.000000 0.000000 1.000000
vn 0.000000 0.000000 1.000000
vn 0.000000 0.000000 1.000000
vn 0.000000 0.000000 1.000000
vn 0.000000 0.000000 1.000000
vn 0.000000 0.000000 1.000000
vn 0.039699 -0.901482 -0.430992
vn 0.039699 -0.901482 -0.430992
vn 0.039699 -0.901482 -0.430992
vn 0.039699 -0.901482 -0.430992
vn 0.039699 -0.901482 -0.430992
vn 0.039699 -0.901482 -0.430992
vn -0.039599 -0.901486 -0.430993
vn -0.039599 -0.901486 -0.430993
vn -0.039599 -0.901486 -0.430993
vn -0.039599 -0.901486 -0.430993
vn -0.039599 -0.901486 -0.430993
vn -0.039599 -0.901486 -0.430993
vn 0.000000 0.000000 -1.000000
vn 0.000000 0.000000 -1.000000
vn 0.000000 0.000000 -1.000000
vn 0.000000 0.000000 -1.000000
vn 0.000000 0.000000 -1.000000
vn 0.000000 0.000000 -1.000000
vn 0.000000 0.000000 1.000000
vn 0.000000 0.000000 1.000000
vn 0.000000 0.000000 1.000000
vn 0.000000 0.000000 1.000000
vn 0.000000 0.000000 1.000000
vn 0.000000 0.000000 1.000000
vn 0.039299 0.894076 0.446188
vn 0.039299 0.894076 0.446188
vn 0.039299 0.894076 0.446188
vn 0.039299 0.894076 0.446188
vn 0.039299 0.894076 0.446188
vn 0.039299 0.894076 0.446188
vn 0.000000 0.894787 0.446494
vn 0.000000 0.894787 0.446494
vn 0.000000 0.894787 0.446494
vn 0.000000 0.894787 0.446494
vn 0.000000 0.894787 0.446494
vn 0.000000 0.894787 0.446494
vn -0.039299 0.894076 0.446188
vn -0.039299 0.894076 0.446188
vn -0.039299 0.894076 0.446188
vn -0.039299 0.894076 0.446188
vn -0.039299 0.894076 0.446188
vn -0.039299 0.894076 0.446188
vn 0.000000 0.871717 0.490010
vn 0.000000 0.871717 0.490010
vn 0.000000 0.871717 0.490010
vn 0.000000 0.871717 0.490010
vn 0.000000 0.871717 0.490010
vn 0.000000 0.871717 0.490010
vn -0.039599 -0.901486 -0.430993
vn -0.039599 -0.901486 -0.430993
vn -0.039599 -0.901486 -0.430993
vn -0.039599 -0.901486 -0.430993
vn -0.039599 -0.901486 -0.430993
vn -0.039599 -0.901486 -0.430993
vn -0.039699 -0.901482 -0.430992
vn -0.039699 -0.901482 -0.430992
vn -0.039699 -0.901482 -0.430992
vn -0.039699 -0.901482 -0.430992
vn -0.039699 -0.901482 -0.430992
vn -0.039699 -0.901482 -0.430992
vn 0.039599 -0.901486 -0.430993
vn 0.039599 -0.901486 -0.430993
vn 0.039599 -0.901486 -0.430993
vn 0.039599 -0.901486 -0.430993
vn 0.039599 -0.901486 -0.430993
vn 0.039599 -0.901486 -0.430993
vn 0.039599 -0.901486 -0.430993
vn 0.039599 -0.901486 -0.430993
vn 0.039599 -0.901486 -0.430993
vn 0.039599 -0.901486 -0.430993
vn 0.039599 -0.901486 -0.430993
vn 0.039599 -0.901486 -0.430993
vn 1.000000 0.000000 0.000000
vn 1.000000 0.000000 0.000000
vn 1.000000 0.000000 0.000000
vn 1.000000 0.000000 0.000000
vn 1.000000 0.000000 0.000000
vn 1.000000 0.000000 0.000000
vn 1.000000 0.000000 0.000000
vn 1.000000 0.000000 0.000000
vn 1.000000 0.000000 0.000000
vn 1.000000 0.000000 0.000000
vn 1.000000 0.000000 0.000000
vn 1.000000 0.000000 0.000000
vn -1.000000 0.000000 0.000000
vn -1.000000 0.000000 0.000000
vn -1.000000 0.000000 0.000000
vn -1.000000 0.000000 0.000000
vn -1.000000 0.000000 0.000000
vn -1.000000 0.000000 0.000000
vn -1.000000 0.000000 0.000000
vn -1.000000 0.000000 0.000000
vn -1.000000 0.000000 0.000000
vn -1.000000 0.000000 0.000000
vn -1.000000 0.000000 0.000000
vn -1.000000 0.000000 0.000000
vn 0.000000 -1.000000 0.000000
vn 0.000000 -1.000000 0.000000
vn 0.000000 -1.000000 0.000000
vn 0.000000 -1.000000 0.000000
vn 0.000000 -1.000000 0.000000
vn 0.000000 -1.000000 0.000000
vn 0.000000 -1.000000 0.000000
vn 0.000000 -1.000000 0.000000
vn 0.000000 -1.000000 0.000000
vn 0.000000 -1.000000 0.000000
vn 0.000000 -1.000000 0.000000
vn 0.000000 -1.000000 0.000000
vn -0.039299 0.894076 0.446188
vn -0.039299 0.894076 0.446188
vn -0.039299 0.894076 0.446188
vn -0.039299 0.894076 0.446188
vn -0.039299 0.894076 0.446188
vn -0.039299 0.894076 0.446188
vn 0.039299 0.894076 0.446188
vn 0.039299 0.894076 0.446188
vn 0.039299 0.894076 0.446188
vn 0.039299 0.894076 0.446188
vn 0.039299 0.894076 0.446188
vn 0.039299 0.894076 0.446188
vn 0.039299 0.894076 0.446188
vn 0.039299 0.894076 0.446188
vn 0.039299 0.894076 0.446188
vn 0.039299 0.894076 0.446188
vn 0.039299 0.894076 0.446188
vn 0.039299 0.894076 0.446188
vn 0.000000 0.894787 0.446494
vn 0.000000 0.894787 0.446494
vn 0.000000 0.894787 0.446494
vn 0.000000 0.894787 0.446494
vn 0.000000 0.894787 0.446494
vn 0.000000 0.894787 0.446494
vn 1.000000 0.000000 0.000000
vn 1.000000 0.000000 0.000000
vn 1.000000 0.000000 0.000000
vn 1.000000 0.000000 0.000000
vn 1.000000 0.000000 0.000000
vn 1.000000 0.000000 0.000000
vn 1.000000 0.000000 0.000000
vn 1.000000 0.000000 0.000000
vn 1.000000 0.000000 0.000000
vn 1.000000 0.000000 0.000000
vn 1.000000 0.000000 0.000000
vn 1.000000 0.000000 0.000000
vn 1.000000 0.000000 0.000000
vn 1.000000 0.000000 0.000000
vn 1.000000 0.000000 0.000000
vn 1.000000 0.000000 0.000000
vn 1.000000 0.000000 0.000000
vn 1.000000 0.000000 0.000000
vn 1.000000 0.000000 0.000000
vn 1.000000 0.000000 0.000000
vn 1.000000 0.000000 0.000000
vn 1.000000 0.000000 0.000000
vn 1.000000 0.000000 0.000000
vn 1.000000 0.000000 0.000000
vn 1.000000 0.000000 0.000000
vn 1.000000 0.000000 0.000000
vn 1.000000 0.000000 0.000000
vn 1.000000 0.000000 0.000000
vn 1.000000 0.000000 0.000000
vn 1.000000 0.000000 0.000000
vn 1.000000 0.000000 0.000000
vn 1.000000 0.000000 0.000000
vn 1.000000 0.000000 0.000000
vn 1.000000 0.000000 0.000000
vn 1.000000 0.000000 0.000000
vn 1.000000 0.000000 0.000000
vn -1.000000 0.000000 0.000000
vn -1.000000 0.000000 0.000000
vn -1.000000 0.000000 0.000000
vn -1.000000 0.000000 0.000000
vn -1.000000 0.000000 0.000000
vn -1.000000 0.000000 0.000000
vn -1.000000 0.000000 0.000000
vn -1.000000 0.000000 0.000000
vn -1.000000 0.000000 0.000000
vn -1.000000 0.000000 0.000000
vn -1.000000 0.000000 0.000000
vn -1.000000 0.000000 0.000000
vn -1.000000 0.000000 0.000000
vn -1.000000 0.000000 0.000000
vn -1.000000 0.000000 0.000000
vn -1.000000 0.000000 0.000000
vn -1.000000 0.000000 0.000000
vn -1.000000 0.000000 0.000000
vn -1.000000 0.000000 0.000000
vn -1.000000 0.000000 0.000000
vn -1.000000 0.000000 0.000000
vn -1.000000 0.000000 0.000000
vn -1.000000 0.000000 0.000000
vn -1.000000 0.000000 0.000000
vn -1.000000 0.000000 0.000000
vn -1.000000 0.000000 0.000000
vn -1.000000 0.000000 0.000000
vn -1.000000 0.000000 0.000000
vn -1.000000 0.000000 0.000000
vn -1.000000 0.000000 0.000000
s off
g CasaTecho:Material_031
usemtl CasaTecho:phongE4SG
f 1/1/1 2/2/2 3/3/3
f 4/4/4 1/1/5 3/3/6
f 5/5/7 6/6/8 7/7/9
f 8/8/10 5/5/11 7/7/12
f 4/4/13 3/3/14 6/6/15
f 5/5/16 4/4/17 6/6/18
f 8/8/19 7/7/20 2/2/21
f 1/1/22 8/8/23 2/2/24
f 9/9/25 10/10/26 11/11/27
f 12/12/28 9/9/29 11/11/30
f 13/13/31 14/14/32 15/15/33
f 16/16/34 13/13/35 15/15/36
f 17/17/37 18/18/38 19/19/39
f 20/20/40 17/17/41 19/19/42
f 21/21/43 22/22/44 23/23/45
f 24/24/46 21/21/47 23/23/48
f 13/13/49 25/25/50 26/26/51
f 14/14/52 13/13/53 26/26/54
f 17/17/55 27/27/56 28/28/57
f 18/18/58 17/17/59 28/28/60
f 29/29/61 30/30/62 31/31/63
f 32/32/64 29/29/65 31/31/66
f 33/33/67 29/29/68 32/32/69
f 34/34/70 33/33/71 32/32/72
f 35/35/73 36/36/74 27/37/75
f 37/38/76 35/35/77 27/37/78
f 36/39/79 38/40/80 28/28/81
f 27/27/82 36/39/83 28/28/84
f 30/41/85 29/42/86 25/43/87
f 39/44/88 30/41/89 25/43/90
f 29/45/91 33/46/92 26/26/93
f 25/25/94 29/45/95 26/26/96
f 14/47/97 26/48/98 40/49/99
f 41/50/100 14/47/101 40/49/102
f 18/51/103 28/52/104 42/53/105
f 43/54/106 18/51/107 42/53/108
f 20/20/109 19/19/110 44/55/111
f 45/56/112 20/20/113 44/55/114
f 16/16/115 15/15/116 11/57/117
f 10/58/118 16/16/119 11/57/120
f 35/59/121 46/60/122 47/61/123
f 24/24/124 35/59/125 47/61/126
f 47/61/127 34/34/128 32/32/129
f 31/31/130 47/61/131 32/32/132
f 30/30/133 48/62/134 21/21/135
f 31/31/136 30/30/137 21/21/138
f 23/23/139 22/22/140 38/63/141
f 36/64/142 23/23/143 38/63/144
f 42/53/145 39/65/146 49/66/147
f 43/54/148 42/53/149 49/66/150
f 49/66/151 39/65/152 25/67/153
f 13/68/154 49/66/155 25/67/156
f 40/49/157 37/69/158 50/70/159
f 41/50/160 40/49/161 50/70/162
f 50/70/163 37/69/164 27/71/165
f 17/72/166 50/70/167 27/71/168
f 30/41/169 39/44/170 42/73/171
f 48/74/172 30/41/173 42/73/174
f 38/75/175 48/74/176 42/73/177
f 28/76/178 38/75/179 42/73/180
f 35/35/181 37/38/182 40/77/183
f 46/78/184 35/35/185 40/77/186
f 33/79/187 46/78/188 40/77/189
f 26/80/190 33/79/191 40/77/192
f 12/12/193 51/81/194 52/82/195
f 9/9/196 12/12/197 52/82/198
f 44/83/199 52/82/200 51/81/201
f 45/84/202 44/83/203 51/81/204
f 22/22/205 21/21/206 48/62/207
f 38/63/208 22/22/209 48/62/210
f 36/64/211 35/59/212 24/24/213
f 23/23/214 36/64/215 24/24/216
f 34/34/217 47/61/218 46/60/219
f 33/33/220 34/34/221 46/60/222
f 31/31/223 21/21/224 24/24/225
f 47/61/226 31/31/227 24/24/228
f 53/85/229 54/86/230 55/87/231
f 56/88/232 53/85/233 55/87/234
f 56/88/235 55/87/236 57/89/237
f 58/90/238 56/88/239 57/89/240
f 59/91/241 60/92/242 61/93/243
f 62/94/244 59/91/245 61/93/246
f 53/85/247 56/88/248 60/92/249
f 63/95/250 53/85/251 60/92/252
f 64/96/253 63/95/254 60/92/255
f 59/91/256 64/96/257 60/92/258
f 56/88/259 58/90/260 61/93/261
f 60/92/262 56/88/263 61/93/264
f 82/97/265 83/98/266 84/99/267
f 85/100/268 82/97/269 84/99/270
f 85/100/271 84/99/272 86/101/273
f 87/102/274 85/100/275 86/101/276
f 88/103/277 89/104/278 90/105/279
f 91/106/280 88/103/281 90/105/282
f 82/97/283 85/100/284 89/104/285
f 92/107/286 82/97/287 89/104/288
f 93/108/289 92/107/290 89/104/291
f 88/103/292 93/108/293 89/104/294
