# This file uses centimeters as units for non-parametric coordinates.

mtllib escaleras.mtl
g default
v 6.756335 0.093631 2.036329
v 6.756335 0.376120 2.036329
v 6.756335 0.376120 -2.389801
v 6.756335 0.093631 -2.389801
v 4.838626 0.093631 2.036329
v 4.838626 0.093631 -2.389801
v 4.838626 0.645263 -2.389801
v 6.756335 0.645263 -2.389801
v 4.838626 0.597827 -2.389801
v 4.838626 0.597827 2.036329
v 6.756335 0.597827 2.036329
v 6.756335 0.597827 -2.389801
v 4.838626 0.321243 2.036329
v 6.756335 0.321243 2.036329
v 6.756335 0.321243 -2.389801
v 4.838626 0.321243 -2.389801
v 4.311083 0.321243 -2.389801
v 4.311083 0.321243 2.036329
v 4.789653 0.597827 -2.389801
v 4.789653 0.597827 2.036329
v 4.838626 0.621547 2.036329
v 4.838626 0.645263 2.012613
v 6.756335 0.621547 2.036329
v 6.756335 0.645263 2.012613
v 4.789653 0.621547 2.036329
v 4.813369 0.645263 2.012613
v 4.789653 0.621547 -2.389801
v 4.813369 0.645263 -2.389801
v 4.360056 0.351636 2.036329
v 4.360056 0.376120 2.011845
v 4.838626 0.402089 2.036329
v 4.838626 0.351636 2.036329
v 4.864596 0.376120 2.036329
v 4.360056 0.376120 -2.365317
v 4.360056 0.351636 -2.389801
v 4.838626 0.351636 -2.389801
v 4.838626 0.402089 -2.389801
v 4.864596 0.376120 -2.389801
v 4.311083 0.351636 2.036329
v 4.335567 0.376120 2.011845
v 4.335567 0.376120 -2.365317
v 4.311083 0.351636 -2.389801
v 4.812660 0.376120 2.011845
v 4.838626 0.363137 2.024828
v 4.838626 0.402087 2.036326
v 4.838626 0.363137 -2.378301
v 4.812660 0.376120 -2.365317
v 4.838626 0.402087 -2.389799
v 4.360056 0.093631 2.022003
v 4.374381 0.093631 2.036329
v 4.360056 0.336438 2.036329
v 4.344861 0.321243 2.036329
v 4.360056 0.321243 2.022003
v 4.374381 0.321243 2.036329
v 4.374381 0.093631 -2.389801
v 4.360056 0.093631 -2.375475
v 4.360056 0.336438 -2.389801
v 4.374381 0.321243 -2.389801
v 4.360056 0.321243 -2.375475
v 4.344861 0.321243 -2.389801
vt 0.425333 0.111089
vt 0.138449 0.044375
vt 0.093512 0.103432
vt 0.097644 0.099438
vt 0.393616 0.105444
vt 0.396257 0.072247
vt 0.096958 0.063906
vt 0.097505 0.056423
vt 0.397104 0.064971
vt 0.094383 0.094716
vt 0.155172 0.200793
vt 0.428171 0.156635
vt -0.051296 0.205608
vt -0.075017 0.087005
vt 0.089282 0.063317
vt 0.089567 0.059599
vt 0.093557 0.056164
vt 0.018466 0.110870
vt 0.018272 0.113319
vt 0.015228 0.114997
vt 0.010000 0.114071
vt 0.010858 0.109372
vt 0.012737 0.683620
vt 0.719812 0.683625
vt 0.697049 0.616832
vt 0.699280 0.619063
vt 0.010005 0.619057
vt 0.012236 0.616826
vt 0.699795 0.253488
vt 0.010000 0.253812
vt 0.010003 0.245258
vt 0.699788 0.244937
vt 0.699741 0.210395
vt 0.010040 0.210683
vt 0.010042 0.203288
vt 0.696326 0.203288
vt 0.700902 0.206647
vt 0.699812 0.288961
vt 0.010005 0.289287
vt 0.834360 0.929795
vt 0.747371 0.914853
vt 0.740327 0.949333
vt 0.878879 0.962700
vt 0.889267 0.519023
vt 0.834287 0.519877
vt 0.884959 1.035646
vt 0.893518 0.906052
vt 0.870024 0.471601
vt 0.885017 0.981754
vt 0.887480 0.981628
vt 1.136979 0.886445
vt 1.136979 0.950728
vt -0.104973 0.950728
vt -0.104973 0.886445
vt 0.010000 0.040185
vt 0.699277 0.040185
vt 0.699277 0.047811
vt 0.010000 0.047811
vt 0.032113 0.599509
vt -0.595946 0.883614
vt -0.578201 0.589414
vt -0.566044 0.577039
vt 0.010000 0.303492
vt -0.629614 0.030597
vt 1.315069 0.609050
vt 1.314803 0.623092
vt 1.365741 0.881865
vt 1.341750 0.013819
vt 0.959644 1.208076
vt 0.959644 0.082648
vt 0.965676 0.082648
vt 0.965676 1.208076
vt 0.952605 1.036426
vt 0.933072 0.465865
vt 0.926410 0.602074
vt 0.936776 0.902008
vt 0.937376 0.909662
vt 0.933669 0.909950
vt 0.893984 1.041816
vt 0.788433 1.418405
vt 0.788433 1.418405
vt 0.788514 -0.129028
vt 0.788516 -0.129028
vt 0.856286 -0.129543
vt 0.856286 1.416322
vt 0.892943 0.981511
vt 0.893129 0.985276
vt 0.888281 0.989455
vt 0.896008 0.906487
vt 0.898345 0.910879
vt 0.943565 0.304919
vt 0.945436 0.299884
vt 0.952546 0.302538
vt 0.947112 0.306267
vt 0.017957 0.105444
vt 0.088666 0.098616
vt 0.093043 0.100946
vt 0.952546 0.990000
vt 0.947168 0.986196
vt 0.699276 0.030563
vt 0.010000 0.030563
vt 0.010000 0.025830
vt 0.699276 0.025830
vt 0.711253 1.010513
vt 0.615285 1.010513
vt 0.615285 0.082390
vt 0.711253 0.082390
vt 0.793634 0.308349
vt 0.793634 0.990000
vt 0.902212 0.905092
vt 0.094383 0.094715
vt 0.801487 0.302812
vt 0.801266 0.986413
vt 0.883191 0.984708
vt 0.883582 0.990000
vt 0.010000 0.012366
vt 0.012231 0.010000
vt 0.697045 0.010000
vt 0.699276 0.012366
vt 0.699276 0.017627
vt 0.010000 0.017627
vt 0.846543 0.976214
vt 0.881712 0.982171
vt 0.024732 0.151301
vt 0.017856 0.116602
vn 0.000000 0.000000 -1.000000
vn 0.000000 0.000000 -1.000000
vn 0.000000 0.000000 -1.000000
vn 0.000000 0.000000 -1.000000
vn 0.000000 0.000000 -1.000000
vn 0.000000 0.000000 -1.000000
vn 0.000000 0.000000 -1.000000
vn 0.000000 0.000000 -1.000000
vn 0.000000 0.000000 -1.000000
vn 0.000000 0.000000 -1.000000
vn 0.000000 0.000000 -1.000000
vn 0.000000 0.000000 -1.000000
vn 0.000000 0.000000 -1.000000
vn 0.000000 0.000000 -1.000000
vn 0.000000 0.000000 -1.000000
vn 0.000000 0.000000 -1.000000
vn 0.000000 0.000000 -1.000000
vn 0.000000 0.000000 -1.000000
vn 0.000000 0.000000 -1.000000
vn 0.000000 0.000000 -1.000000
vn 0.000000 0.000000 -1.000000
vn 0.000000 0.000000 -1.000000
vn 0.000000 0.000000 -1.000000
vn 0.000000 0.000000 -1.000000
vn 0.000000 0.000000 -1.000000
vn 0.000000 0.000000 -1.000000
vn 0.000000 0.000000 -1.000000
vn 0.000000 0.000000 -1.000000
vn 0.000000 0.000000 -1.000000
vn 0.000000 0.000000 -1.000000
vn 0.000000 0.000000 -1.000000
vn 0.000000 0.000000 -1.000000
vn 0.000000 0.000000 -1.000000
vn 0.000000 0.000000 -1.000000
vn 0.000000 0.000000 -1.000000
vn 0.000000 0.000000 -1.000000
vn 0.000000 0.000000 -1.000000
vn 0.000000 -1.000000 0.000000
vn 0.000000 -1.000000 0.000000
vn 0.000000 -1.000000 0.000000
vn 0.000000 -1.000000 0.000000
vn 0.000000 -1.000000 0.000000
vn 0.000000 -1.000000 0.000000
vn 1.000000 0.000000 0.000000
vn 1.000000 0.000000 0.000000
vn 1.000000 0.000000 0.000000
vn 1.000000 0.000000 0.000000
vn 1.000000 0.000000 0.000000
vn 1.000000 0.000000 0.000000
vn 1.000000 0.000000 0.000000
vn 1.000000 0.000000 0.000000
vn 1.000000 0.000000 0.000000
vn 1.000000 0.000000 0.000000
vn 1.000000 0.000000 0.000000
vn 1.000000 0.000000 0.000000
vn 1.000000 0.000000 0.000000
vn 1.000000 0.000000 0.000000
vn 1.000000 0.000000 0.000000
vn 1.000000 0.000000 0.000000
vn 1.000000 0.000000 0.000000
vn 0.000000 0.000000 1.000000
vn 0.000000 0.000000 1.000000
vn 0.000000 0.000000 1.000000
vn 0.000000 0.000000 1.000000
vn 0.000000 0.000000 1.000000
vn 0.000000 0.000000 1.000000
vn 0.000000 0.000000 1.000000
vn 0.000000 0.000000 1.000000
vn 0.000000 0.000000 1.000000
vn 0.000000 0.000000 1.000000
vn 0.000000 0.000000 1.000000
vn 0.000000 0.000000 1.000000
vn 0.000000 0.000000 1.000000
vn 0.000000 0.000000 1.000000
vn 0.000000 0.000000 1.000000
vn 0.000000 0.000000 1.000000
vn 0.000000 0.000000 1.000000
vn 0.000000 0.000000 1.000000
vn -1.000000 0.000000 0.000000
vn -1.000000 0.000000 0.000000
vn -1.000000 0.000000 0.000000
vn -1.000000 0.000000 0.000000
vn 0.000000 -1.000000 0.000000
vn 0.000000 -1.000000 0.000000
vn 0.000000 -1.000000 0.000000
vn 0.000000 -1.000000 0.000000
vn 0.000000 0.707111 0.707103
vn 0.000000 0.707111 0.707103
vn 0.000000 0.707111 0.707103
vn 0.000000 0.707111 0.707103
vn 0.000000 0.707111 0.707103
vn 0.000000 0.707111 0.707103
vn 0.000000 0.707111 0.707103
vn 0.000000 0.707111 0.707103
vn -0.707105 0.707108 0.000000
vn -0.707105 0.707108 0.000000
vn -0.707105 0.707108 0.000000
vn -0.707105 0.707108 0.000000
vn 0.000000 1.000000 0.000000
vn 0.000000 1.000000 0.000000
vn 0.000000 1.000000 0.000000
vn 0.000000 1.000000 0.000000
vn 0.000000 1.000000 0.000000
vn 0.000000 1.000000 0.000000
vn 0.000000 1.000000 0.000000
vn 0.000000 1.000000 0.000000
vn -1.000000 0.000000 0.000000
vn -1.000000 0.000000 0.000000
vn -1.000000 0.000000 0.000000
vn -1.000000 0.000000 0.000000
vn 0.000000 0.000000 1.000000
vn 0.000000 0.000000 1.000000
vn 0.000000 0.000000 1.000000
vn 0.000000 0.000000 1.000000
vn 0.000000 0.000000 1.000000
vn 0.000000 0.000000 1.000000
vn 0.000000 0.000000 1.000000
vn 0.000000 0.000000 1.000000
vn 0.000000 0.000000 1.000000
vn 0.000000 0.000000 1.000000
vn 0.000000 0.000000 1.000000
vn 0.000000 0.000000 1.000000
vn 0.000000 0.000000 1.000000
vn -1.000000 0.000000 0.000000
vn -1.000000 0.000000 0.000000
vn -1.000000 0.000000 0.000000
vn -1.000000 0.000000 0.000000
vn -1.000000 0.000000 0.000000
vn -1.000000 0.000000 0.000000
vn 0.000000 0.707104 0.707110
vn 0.000000 0.707104 0.707110
vn 0.000000 0.707104 0.707110
vn 0.000000 0.707104 0.707110
vn 0.000000 0.707104 0.707110
vn 0.000000 0.707104 0.707110
vn 0.000000 0.707104 0.707110
vn 0.000000 0.707104 0.707110
vn 0.000000 0.707104 0.707110
vn 0.000000 0.707108 -0.707105
vn 0.000000 0.707108 -0.707105
vn 0.000000 0.707108 -0.707105
vn 0.000000 0.707108 -0.707105
vn 0.000000 0.707108 -0.707105
vn 0.000000 0.707108 -0.707105
vn 0.000000 0.707108 -0.707105
vn 0.000000 0.707108 -0.707105
vn 0.000000 0.707108 -0.707105
vn -0.707105 0.707108 0.000000
vn -0.707105 0.707108 0.000000
vn -0.707105 0.707108 0.000000
vn -0.707105 0.707108 0.000000
vn -1.000000 0.000000 0.000000
vn -1.000000 0.000000 0.000000
vn -1.000000 0.000000 0.000000
vn -1.000000 0.000000 0.000000
vn 0.000000 1.000000 0.000000
vn 0.000000 1.000000 0.000000
vn 0.000000 1.000000 0.000000
vn 0.000000 1.000000 0.000000
vn 0.000000 1.000000 0.000000
vn 0.000000 1.000000 0.000000
vn 0.000000 1.000000 0.000000
vn 0.000000 1.000000 0.000000
vn -0.466010 0.161447 0.869925
vn -0.507611 -0.040393 0.860639
vn -0.507611 -0.040393 0.860639
vn -0.466010 0.161447 0.869925
vn -0.466010 0.161447 0.869925
vn -0.527610 -0.240514 0.814727
vn -0.507611 -0.040393 0.860639
vn -0.507611 -0.040393 0.860639
vn -0.466001 0.161443 -0.869931
vn -0.507612 -0.040391 -0.860638
vn -0.507612 -0.040391 -0.860638
vn -0.466001 0.161443 -0.869931
vn -0.466001 0.161443 -0.869931
vn -0.507612 -0.040391 -0.860638
vn -0.527623 -0.240506 -0.814721
vn -0.507612 -0.040391 -0.860638
vn -0.707107 0.707107 0.000000
vn -0.707107 0.707107 0.000000
vn -0.707107 0.707107 0.000000
vn -0.707107 0.707107 0.000000
vn 0.000000 0.000000 1.000000
vn 0.000000 0.000000 1.000000
vn 0.000000 0.000000 1.000000
vn 0.000000 0.000000 1.000000
vn 0.000000 0.000000 1.000000
vn 0.000000 -1.000000 0.000000
vn 0.000000 -1.000000 0.000000
vn 0.000000 -1.000000 0.000000
vn 0.000000 -1.000000 0.000000
vn 0.000000 -1.000000 0.000000
vn 0.000000 -1.000000 0.000000
vn -0.707112 0.000000 0.707101
vn -0.707112 0.000000 0.707101
vn -0.707112 0.000000 0.707101
vn -0.707112 0.000000 0.707101
vn -0.707112 0.000000 -0.707101
vn -0.707112 0.000000 -0.707101
vn -0.707112 0.000000 -0.707101
vn -0.707112 0.000000 -0.707101
vn 0.000000 -0.685998 0.727604
vn 0.000000 -0.685998 0.727604
vn 0.000000 -0.685998 0.727604
vn 0.000000 -0.685998 0.727604
vn 0.000000 -0.685998 -0.727604
vn 0.000000 -0.685998 -0.727604
vn 0.000000 -0.685998 -0.727604
vn 0.000000 -0.685998 -0.727604
s off
g stairs:polySurface294
usemtl lambert3SG
f 15/1/1 16/2/2 36/3/3 38/4/4 3/5/5
f 12/6/6 9/7/7 7/8/8 8/9/9
f 3/5/10 38/4/11 37/10/12 9/7/13 12/6/14
f 6/11/15 16/2/16 15/1/17 4/12/18
f 55/13/19 58/14/20 16/2/21 6/11/22
f 7/8/23 9/7/24 19/15/25 27/16/26 28/17/27
f 35/18/28 36/3/29 16/2/30 58/14/31 57/19/32
f 35/18/33 57/19/34 60/20/35 17/21/36 42/22/37
f 56/25/38 55/26/39 6/24/40 5/23/41 50/27/42 49/28/43
f 14/29/44 15/30/45 3/31/46 2/32/47
f 11/33/48 12/34/49 8/35/50 24/36/51 23/37/52
f 2/32/53 3/31/54 12/34/55 11/33/56
f 1/38/57 4/39/58 15/30/59 14/29/60
f 54/40/61 50/41/62 5/42/63 13/43/64
f 14/44/65 13/43/66 5/42/67 1/45/68
f 33/46/69 32/47/70 13/43/71 14/44/72 2/48/73
f 51/49/74 54/40/75 13/43/76 32/47/77 29/50/78
f 59/51/79 56/52/80 49/53/81 53/54/82
f 9/55/83 10/56/84 20/57/85 19/58/86
f 21/59/87 22/60/88 26/61/89 25/62/90
f 22/60/91 21/59/92 23/63/93 24/64/94
f 25/62/95 26/61/96 28/65/97 27/66/98
f 7/67/99 22/60/100 24/64/101 8/68/102
f 22/60/103 7/67/104 28/65/105 26/61/106
f 19/69/107 20/70/108 25/71/109 27/72/110
f 10/73/111 11/74/112 23/75/113 21/76/114
f 10/73/115 21/76/116 25/77/117 20/78/118
f 31/79/119 33/46/120 2/48/121 11/74/122 10/73/123
f 37/80/124 48/81/125 45/82/126 31/83/127 10/84/128 9/85/129
f 29/50/130 30/86/131 40/87/132 39/88/133
f 30/86/134 29/50/135 32/47/136 44/89/137 43/90/138
f 34/91/139 35/92/140 42/93/141 41/94/142
f 35/18/143 34/95/144 47/96/145 46/97/146 36/3/147
f 39/98/148 40/99/149 41/94/150 42/93/151
f 17/100/152 18/101/153 39/102/154 42/103/155
f 30/104/156 43/105/157 47/106/158 34/107/159
f 30/104/160 34/107/161 41/108/162 40/109/163
f 31/79/164 45/110/165 44/89/166 32/47/167 33/46/168
f 43/90/169 44/89/170 45/110/171
f 36/3/172 46/97/173 48/111/174 37/10/175 38/4/176
f 46/97/177 47/96/178 48/111/179
f 43/112/180 45/82/181 48/81/182 47/113/183
f 52/114/184 51/49/185 29/50/186 39/88/187 18/115/188
f 60/116/189 59/117/190 53/118/191 52/119/192 18/120/193 17/121/194
f 49/122/195 50/41/196 54/40/197 53/123/198
f 55/13/199 56/124/200 59/125/201 58/14/202
f 51/49/203 52/114/204 53/123/205 54/40/206
f 57/19/207 58/14/208 59/125/209 60/20/210
