# This file uses centimeters as units for non-parametric coordinates.

mtllib VentanaPuerta.mtl
g default
v -0.224666 -5.716969 -2.852044
v -0.224666 -5.673532 -3.067524
v -0.224666 -5.760407 -3.067524
v -0.224666 -5.760407 -2.636567
v -0.224666 -6.007812 -3.067524
v -0.224666 -6.007813 -2.271225
v -0.224666 -6.417473 -3.067540
v -0.224666 -6.417474 -2.019341
v -0.224666 -6.815479 -3.067707
v -0.224666 -6.815479 -1.940884
v -0.224666 -6.997281 -3.067707
v -0.224666 -6.997281 -1.940884
v -0.224666 -6.815479 -4.194531
v -0.224666 -6.417473 -4.115738
v -0.224666 -6.007812 -3.863823
v -0.224666 -6.997281 -4.194531
v -0.224666 -5.760408 -3.498482
v -0.224666 -5.716969 -3.283005
vt 0.772435 0.220202
vt 0.770631 0.229151
vt 0.774239 0.229151
vt 0.774239 0.211254
vt 0.784513 0.229151
vt 0.784513 0.196082
vt 0.801526 0.229152
vt 0.801526 0.185622
vt 0.818054 0.229159
vt 0.818054 0.182364
vt 0.825604 0.229159
vt 0.825604 0.182364
vt 0.818054 0.275953
vt 0.801526 0.272681
vt 0.784513 0.262220
vt 0.825604 0.275953
vt 0.774239 0.247048
vt 0.772435 0.238099
vn -1.000000 0.000000 0.000000
vn -1.000000 0.000000 0.000000
vn -1.000000 0.000000 0.000000
vn -1.000000 0.000000 0.000000
vn -1.000000 0.000000 0.000000
vn -1.000000 0.000000 0.000000
vn -1.000000 0.000000 0.000000
vn -1.000000 0.000000 0.000000
vn -1.000000 0.000000 0.000000
vn -1.000000 0.000000 0.000000
vn -1.000000 0.000000 0.000000
vn -1.000000 0.000000 0.000000
vn -1.000000 0.000000 0.000000
vn -1.000000 0.000000 0.000000
vn -1.000000 0.000000 0.000000
vn -1.000000 0.000000 0.000000
vn -1.000000 0.000000 0.000000
vn -1.000000 0.000000 0.000000
vn -1.000000 0.000000 0.000000
vn -1.000000 0.000000 0.000000
vn -1.000000 0.000000 0.000000
vn -1.000000 0.000000 0.000000
vn -1.000000 0.000000 0.000000
vn -1.000000 0.000000 0.000000
vn -1.000000 0.000000 0.000000
vn -1.000000 0.000000 0.000000
vn -1.000000 0.000000 0.000000
vn -1.000000 0.000000 0.000000
vn -1.000000 0.000000 0.000000
vn -1.000000 0.000000 0.000000
vn -1.000000 0.000000 0.000000
vn -1.000000 0.000000 0.000000
vn -1.000000 0.000000 0.000000
vn -1.000000 0.000000 0.000000
vn -1.000000 0.000000 0.000000
vn -1.000000 0.000000 0.000000
vn -1.000000 0.000000 0.000000
vn -1.000000 0.000000 0.000000
vn -1.000000 0.000000 0.000000
vn -1.000000 0.000000 0.000000
vn -1.000000 0.000000 0.000000
vn -1.000000 0.000000 0.000000
vn -1.000000 0.000000 0.000000
vn -1.000000 0.000000 0.000000
vn -1.000000 0.000000 0.000000
vn -1.000000 0.000000 0.000000
vn -1.000000 0.000000 0.000000
vn -1.000000 0.000000 0.000000
vn -1.000000 0.000000 0.000000
vn -1.000000 0.000000 0.000000
vn -1.000000 0.000000 0.000000
vn -1.000000 0.000000 0.000000
vn -1.000000 0.000000 0.000000
vn -1.000000 0.000000 0.000000
vn -1.000000 0.000000 0.000000
vn -1.000000 0.000000 0.000000
vn -1.000000 0.000000 0.000000
vn -1.000000 0.000000 0.000000
vn -1.000000 0.000000 0.000000
vn -1.000000 0.000000 0.000000
s off
g polySurface1 Ventanas:polySurface3
usemtl Ventanas:phongE4SG
f 1/1/1 2/2/2 3/3/3
f 4/4/4 1/1/5 3/3/6
f 5/5/7 6/6/8 4/4/9
f 3/3/10 5/5/11 4/4/12
f 7/7/13 8/8/14 6/6/15
f 5/5/16 7/7/17 6/6/18
f 9/9/19 10/10/20 8/8/21
f 7/7/22 9/9/23 8/8/24
f 9/9/25 11/11/26 12/12/27
f 10/10/28 9/9/29 12/12/30
f 13/13/31 9/9/32 7/7/33
f 14/14/34 13/13/35 7/7/36
f 14/14/37 7/7/38 5/5/39
f 15/15/40 14/14/41 5/5/42
f 16/16/43 11/11/44 9/9/45
f 13/13/46 16/16/47 9/9/48
f 15/15/49 5/5/50 3/3/51
f 17/17/52 15/15/53 3/3/54
f 17/17/55 3/3/56 2/2/57
f 18/18/58 17/17/59 2/2/60
